<mxfile host="65bd71144e" pages="2">
    <diagram id="_jFdEns0Y878xqZbYQA5" name="FileDiagram">
        <mxGraphModel dx="1117" dy="534" grid="1" gridSize="10" guides="1" tooltips="1" connect="1" arrows="1" fold="1" page="1" pageScale="1" pageWidth="850" pageHeight="1100" math="0" shadow="0">
            <root>
                <mxCell id="euuMSJNE7WmhquI7jn4D-0"/>
                <mxCell id="euuMSJNE7WmhquI7jn4D-1" parent="euuMSJNE7WmhquI7jn4D-0"/>
                <mxCell id="euuMSJNE7WmhquI7jn4D-5" value="" style="rounded=0;whiteSpace=wrap;html=1;fillColor=#b1ddf0;strokeColor=#10739e;" parent="euuMSJNE7WmhquI7jn4D-1" vertex="1">
                    <mxGeometry x="100" y="50" width="150" height="260" as="geometry"/>
                </mxCell>
                <mxCell id="euuMSJNE7WmhquI7jn4D-2" value="7-segment&lt;br&gt;Display" style="rounded=0;whiteSpace=wrap;html=1;" parent="euuMSJNE7WmhquI7jn4D-1" vertex="1">
                    <mxGeometry x="120" y="80" width="110" height="60" as="geometry"/>
                </mxCell>
                <mxCell id="euuMSJNE7WmhquI7jn4D-3" value="LED &lt;br&gt;Matrix" style="rounded=0;whiteSpace=wrap;html=1;" parent="euuMSJNE7WmhquI7jn4D-1" vertex="1">
                    <mxGeometry x="120" y="160" width="110" height="60" as="geometry"/>
                </mxCell>
                <mxCell id="euuMSJNE7WmhquI7jn4D-4" value="LED's" style="rounded=0;whiteSpace=wrap;html=1;" parent="euuMSJNE7WmhquI7jn4D-1" vertex="1">
                    <mxGeometry x="120" y="240" width="110" height="60" as="geometry"/>
                </mxCell>
                <mxCell id="euuMSJNE7WmhquI7jn4D-6" value="&lt;font color=&quot;#000000&quot;&gt;Screens/outputs&lt;/font&gt;" style="text;html=1;resizable=0;autosize=1;align=center;verticalAlign=middle;points=[];fillColor=none;strokeColor=none;rounded=0;" parent="euuMSJNE7WmhquI7jn4D-1" vertex="1">
                    <mxGeometry x="125" y="50" width="100" height="20" as="geometry"/>
                </mxCell>
                <mxCell id="euuMSJNE7WmhquI7jn4D-8" style="edgeStyle=none;html=1;entryX=1;entryY=0.5;entryDx=0;entryDy=0;fontColor=#FAFAFA;" parent="euuMSJNE7WmhquI7jn4D-1" source="euuMSJNE7WmhquI7jn4D-7" target="euuMSJNE7WmhquI7jn4D-2" edge="1">
                    <mxGeometry relative="1" as="geometry"/>
                </mxCell>
                <mxCell id="euuMSJNE7WmhquI7jn4D-9" style="edgeStyle=none;html=1;fontColor=#FAFAFA;" parent="euuMSJNE7WmhquI7jn4D-1" source="euuMSJNE7WmhquI7jn4D-7" target="euuMSJNE7WmhquI7jn4D-3" edge="1">
                    <mxGeometry relative="1" as="geometry"/>
                </mxCell>
                <mxCell id="euuMSJNE7WmhquI7jn4D-10" style="edgeStyle=none;html=1;fontColor=#FAFAFA;entryX=1;entryY=0.5;entryDx=0;entryDy=0;" parent="euuMSJNE7WmhquI7jn4D-1" source="euuMSJNE7WmhquI7jn4D-7" target="euuMSJNE7WmhquI7jn4D-4" edge="1">
                    <mxGeometry relative="1" as="geometry"/>
                </mxCell>
                <mxCell id="euuMSJNE7WmhquI7jn4D-7" value="&lt;font color=&quot;#fafafa&quot;&gt;Screen &lt;br&gt;Controller&lt;/font&gt;" style="rounded=0;whiteSpace=wrap;html=1;fontColor=#000000;fillColor=none;" parent="euuMSJNE7WmhquI7jn4D-1" vertex="1">
                    <mxGeometry x="320" y="160" width="120" height="60" as="geometry"/>
                </mxCell>
                <mxCell id="Mq9W3Sbi1TfVtfibdV3a-1" style="edgeStyle=none;html=1;entryX=1;entryY=0.5;entryDx=0;entryDy=0;fontColor=#FAFAFA;strokeColor=#FAFAFA;" parent="euuMSJNE7WmhquI7jn4D-1" source="Mq9W3Sbi1TfVtfibdV3a-0" target="euuMSJNE7WmhquI7jn4D-7" edge="1">
                    <mxGeometry relative="1" as="geometry"/>
                </mxCell>
                <mxCell id="Mq9W3Sbi1TfVtfibdV3a-0" value="&lt;font color=&quot;#fafafa&quot;&gt;Main&lt;/font&gt;" style="rounded=0;whiteSpace=wrap;html=1;fontColor=#000000;strokeColor=#FAFAFA;fillColor=none;" parent="euuMSJNE7WmhquI7jn4D-1" vertex="1">
                    <mxGeometry x="480" y="160" width="120" height="60" as="geometry"/>
                </mxCell>
                <mxCell id="Mq9W3Sbi1TfVtfibdV3a-3" style="edgeStyle=none;html=1;entryX=0.5;entryY=0;entryDx=0;entryDy=0;fontColor=#FAFAFA;strokeColor=#FAFAFA;startArrow=classic;startFill=0;" parent="euuMSJNE7WmhquI7jn4D-1" source="Mq9W3Sbi1TfVtfibdV3a-2" target="Mq9W3Sbi1TfVtfibdV3a-0" edge="1">
                    <mxGeometry relative="1" as="geometry"/>
                </mxCell>
                <mxCell id="Mq9W3Sbi1TfVtfibdV3a-2" value="&lt;font color=&quot;#fafafa&quot;&gt;Controls&lt;/font&gt;" style="rounded=0;whiteSpace=wrap;html=1;fontColor=#000000;strokeColor=#FAFAFA;fillColor=none;" parent="euuMSJNE7WmhquI7jn4D-1" vertex="1">
                    <mxGeometry x="480" y="30" width="120" height="60" as="geometry"/>
                </mxCell>
                <mxCell id="Mq9W3Sbi1TfVtfibdV3a-6" style="edgeStyle=none;html=1;fontColor=#FAFAFA;strokeColor=#FAFAFA;" parent="euuMSJNE7WmhquI7jn4D-1" source="Mq9W3Sbi1TfVtfibdV3a-4" target="Mq9W3Sbi1TfVtfibdV3a-0" edge="1">
                    <mxGeometry relative="1" as="geometry"/>
                </mxCell>
                <mxCell id="Mq9W3Sbi1TfVtfibdV3a-4" value="&lt;font color=&quot;#fafafa&quot;&gt;Sensors&lt;br&gt;&lt;/font&gt;" style="rounded=0;whiteSpace=wrap;html=1;fontColor=#000000;strokeColor=#FAFAFA;fillColor=none;" parent="euuMSJNE7WmhquI7jn4D-1" vertex="1">
                    <mxGeometry x="480" y="290" width="120" height="60" as="geometry"/>
                </mxCell>
                <mxCell id="Mq9W3Sbi1TfVtfibdV3a-7" style="edgeStyle=none;html=1;fontColor=#FAFAFA;strokeColor=#FAFAFA;startArrow=classic;startFill=1;" parent="euuMSJNE7WmhquI7jn4D-1" source="Mq9W3Sbi1TfVtfibdV3a-5" target="Mq9W3Sbi1TfVtfibdV3a-0" edge="1">
                    <mxGeometry relative="1" as="geometry"/>
                </mxCell>
                <mxCell id="Mq9W3Sbi1TfVtfibdV3a-5" value="&lt;font color=&quot;#fafafa&quot;&gt;RTC&lt;br&gt;&lt;/font&gt;" style="rounded=0;whiteSpace=wrap;html=1;fontColor=#000000;strokeColor=#FAFAFA;fillColor=none;" parent="euuMSJNE7WmhquI7jn4D-1" vertex="1">
                    <mxGeometry x="680" y="160" width="120" height="60" as="geometry"/>
                </mxCell>
                <mxCell id="0" value="Namespaces" style="text;html=1;align=center;verticalAlign=middle;resizable=0;points=[];autosize=1;strokeColor=none;fillColor=none;" parent="euuMSJNE7WmhquI7jn4D-1" vertex="1">
                    <mxGeometry x="5" y="20" width="90" height="20" as="geometry"/>
                </mxCell>
            </root>
        </mxGraphModel>
    </diagram>
    <diagram id="UFMg58TEYRR7It8QBHKF" name="Page-1">
        <mxGraphModel dx="1117" dy="534" grid="1" gridSize="10" guides="1" tooltips="1" connect="1" arrows="1" fold="1" page="1" pageScale="1" pageWidth="850" pageHeight="1100" math="0" shadow="0">
            <root>
                <mxCell id="0"/>
                <mxCell id="1" parent="0"/>
                <mxCell id="wUYEnWsGU_GkCMvx4JdE-1" value="" style="ellipse;whiteSpace=wrap;html=1;aspect=fixed;" parent="1" vertex="1">
                    <mxGeometry x="40" y="80" width="240" height="240" as="geometry"/>
                </mxCell>
                <mxCell id="wUYEnWsGU_GkCMvx4JdE-4" value="&lt;font style=&quot;font-size: 36px&quot;&gt;2&lt;/font&gt;" style="rounded=0;whiteSpace=wrap;html=1;fillColor=#d5e8d4;strokeColor=#82b366;" parent="1" vertex="1">
                    <mxGeometry x="60" y="150" width="50" height="60" as="geometry"/>
                </mxCell>
                <mxCell id="wUYEnWsGU_GkCMvx4JdE-7" value="&lt;font style=&quot;font-size: 36px&quot;&gt;1&lt;/font&gt;" style="rounded=0;whiteSpace=wrap;html=1;fillColor=#d5e8d4;strokeColor=#82b366;" parent="1" vertex="1">
                    <mxGeometry x="110" y="150" width="50" height="60" as="geometry"/>
                </mxCell>
                <mxCell id="wUYEnWsGU_GkCMvx4JdE-8" value="&lt;font style=&quot;font-size: 36px&quot;&gt;3&lt;/font&gt;" style="rounded=0;whiteSpace=wrap;html=1;fillColor=#d5e8d4;strokeColor=#82b366;" parent="1" vertex="1">
                    <mxGeometry x="160" y="150" width="50" height="60" as="geometry"/>
                </mxCell>
                <mxCell id="wUYEnWsGU_GkCMvx4JdE-9" value="&lt;font style=&quot;font-size: 36px&quot;&gt;4&lt;/font&gt;" style="rounded=0;whiteSpace=wrap;html=1;fillColor=#d5e8d4;strokeColor=#82b366;" parent="1" vertex="1">
                    <mxGeometry x="210" y="150" width="50" height="60" as="geometry"/>
                </mxCell>
                <mxCell id="MrMdJ49gpNlxOydt49c9-1" value="&lt;font style=&quot;font-size: 18px&quot;&gt;22&lt;/font&gt;" style="rounded=0;whiteSpace=wrap;html=1;fontSize=36;rotation=-90;fillColor=#f8cecc;strokeColor=#b85450;" parent="1" vertex="1">
                    <mxGeometry x="123.75" y="222.5" width="40" height="35" as="geometry"/>
                </mxCell>
                <mxCell id="MrMdJ49gpNlxOydt49c9-2" value="&lt;font style=&quot;font-size: 12px&quot;&gt;MON&lt;/font&gt;" style="rounded=0;whiteSpace=wrap;html=1;fontSize=36;rotation=-90;fillColor=#f8cecc;strokeColor=#b85450;" parent="1" vertex="1">
                    <mxGeometry x="160" y="222.5" width="40" height="35" as="geometry"/>
                </mxCell>
                <mxCell id="nqueBkoND-IIMOM82Kb3-1" value="alarm" style="ellipse;whiteSpace=wrap;html=1;aspect=fixed;fontSize=9;" parent="1" vertex="1">
                    <mxGeometry x="225" y="230" width="20" height="20" as="geometry"/>
                </mxCell>
                <mxCell id="nqueBkoND-IIMOM82Kb3-2" value="temp" style="ellipse;whiteSpace=wrap;html=1;aspect=fixed;fontSize=9;" parent="1" vertex="1">
                    <mxGeometry x="75" y="230" width="20" height="20" as="geometry"/>
                </mxCell>
                <mxCell id="nqueBkoND-IIMOM82Kb3-3" value="cronometer" style="ellipse;whiteSpace=wrap;html=1;aspect=fixed;fontSize=9;" parent="1" vertex="1">
                    <mxGeometry x="210" y="257.5" width="20" height="20" as="geometry"/>
                </mxCell>
                <mxCell id="nqueBkoND-IIMOM82Kb3-4" value="&lt;div&gt;alarm&lt;/div&gt;on/off" style="ellipse;whiteSpace=wrap;html=1;aspect=fixed;fontSize=9;" parent="1" vertex="1">
                    <mxGeometry x="150" y="277.5" width="20" height="20" as="geometry"/>
                </mxCell>
                <mxCell id="nqueBkoND-IIMOM82Kb3-7" value="alt" style="ellipse;whiteSpace=wrap;html=1;aspect=fixed;fontSize=9;" parent="1" vertex="1">
                    <mxGeometry x="90" y="257.5" width="20" height="20" as="geometry"/>
                </mxCell>
                <mxCell id="ul1-OO96f1eJHYDsLRav-1" value="B1" style="rounded=0;whiteSpace=wrap;html=1;fontSize=9;rotation=-30;" parent="1" vertex="1">
                    <mxGeometry x="245" y="110" width="60" height="30" as="geometry"/>
                </mxCell>
                <mxCell id="ul1-OO96f1eJHYDsLRav-2" value="B2" style="rounded=0;whiteSpace=wrap;html=1;fontSize=9;rotation=30;" parent="1" vertex="1">
                    <mxGeometry x="250" y="247.5" width="60" height="30" as="geometry"/>
                </mxCell>
            </root>
        </mxGraphModel>
    </diagram>
    <diagram id="I9rO2sWyAo4rYJvNkQk8" name="Page-2">
        <mxGraphModel dx="1862" dy="890" grid="1" gridSize="10" guides="1" tooltips="1" connect="1" arrows="1" fold="1" page="1" pageScale="1" pageWidth="850" pageHeight="1100" math="0" shadow="0">
            <root>
                <mxCell id="sauyvbuuM_kQLv8pul-b-0"/>
                <mxCell id="sauyvbuuM_kQLv8pul-b-1" parent="sauyvbuuM_kQLv8pul-b-0"/>
                <mxCell id="sauyvbuuM_kQLv8pul-b-2" value="" style="ellipse;whiteSpace=wrap;html=1;aspect=fixed;" parent="sauyvbuuM_kQLv8pul-b-1" vertex="1">
                    <mxGeometry x="85" y="80" width="320" height="320" as="geometry"/>
                </mxCell>
                <mxCell id="sauyvbuuM_kQLv8pul-b-3" value="&lt;font style=&quot;font-size: 48px&quot;&gt;02&lt;/font&gt;" style="rounded=0;whiteSpace=wrap;html=1;" parent="sauyvbuuM_kQLv8pul-b-1" vertex="1">
                    <mxGeometry x="185" y="110" width="120" height="60" as="geometry"/>
                </mxCell>
                <mxCell id="sauyvbuuM_kQLv8pul-b-4" value="&lt;font style=&quot;font-size: 48px&quot;&gt;XX&lt;/font&gt;" style="rounded=0;whiteSpace=wrap;html=1;" parent="sauyvbuuM_kQLv8pul-b-1" vertex="1">
                    <mxGeometry x="185" y="320" width="120" height="60" as="geometry"/>
                </mxCell>
                <mxCell id="sauyvbuuM_kQLv8pul-b-5" value="&lt;font style=&quot;font-size: 48px&quot;&gt;MON&lt;/font&gt;" style="rounded=0;whiteSpace=wrap;html=1;" parent="sauyvbuuM_kQLv8pul-b-1" vertex="1">
                    <mxGeometry x="185" y="250" width="120" height="60" as="geometry"/>
                </mxCell>
                <mxCell id="sauyvbuuM_kQLv8pul-b-6" value="&lt;font style=&quot;font-size: 48px&quot;&gt;15&lt;/font&gt;" style="rounded=0;whiteSpace=wrap;html=1;" parent="sauyvbuuM_kQLv8pul-b-1" vertex="1">
                    <mxGeometry x="185" y="180" width="120" height="60" as="geometry"/>
                </mxCell>
                <mxCell id="sauyvbuuM_kQLv8pul-b-7" value="D" style="text;html=1;strokeColor=none;fillColor=none;align=center;verticalAlign=middle;whiteSpace=wrap;rounded=0;fontSize=48;" parent="sauyvbuuM_kQLv8pul-b-1" vertex="1">
                    <mxGeometry x="95" y="265" width="60" height="30" as="geometry"/>
                </mxCell>
                <mxCell id="sauyvbuuM_kQLv8pul-b-8" value="H" style="text;html=1;strokeColor=none;fillColor=none;align=center;verticalAlign=middle;whiteSpace=wrap;rounded=0;fontSize=48;" parent="sauyvbuuM_kQLv8pul-b-1" vertex="1">
                    <mxGeometry x="95" y="125" width="60" height="30" as="geometry"/>
                </mxCell>
                <mxCell id="sauyvbuuM_kQLv8pul-b-9" value="M" style="text;html=1;strokeColor=none;fillColor=none;align=center;verticalAlign=middle;whiteSpace=wrap;rounded=0;fontSize=48;" parent="sauyvbuuM_kQLv8pul-b-1" vertex="1">
                    <mxGeometry x="95" y="195" width="60" height="30" as="geometry"/>
                </mxCell>
                <mxCell id="sauyvbuuM_kQLv8pul-b-10" value="S" style="text;html=1;strokeColor=none;fillColor=none;align=center;verticalAlign=middle;whiteSpace=wrap;rounded=0;fontSize=48;" parent="sauyvbuuM_kQLv8pul-b-1" vertex="1">
                    <mxGeometry x="100" y="420" width="60" height="30" as="geometry"/>
                </mxCell>
                <mxCell id="sauyvbuuM_kQLv8pul-b-11" value="DN" style="text;html=1;strokeColor=none;fillColor=none;align=center;verticalAlign=middle;whiteSpace=wrap;rounded=0;fontSize=48;" parent="sauyvbuuM_kQLv8pul-b-1" vertex="1">
                    <mxGeometry x="95" y="335" width="60" height="30" as="geometry"/>
                </mxCell>
                <mxCell id="sauyvbuuM_kQLv8pul-b-12" value="" style="ellipse;whiteSpace=wrap;html=1;aspect=fixed;" parent="sauyvbuuM_kQLv8pul-b-1" vertex="1">
                    <mxGeometry x="495" y="75" width="320" height="320" as="geometry"/>
                </mxCell>
                <mxCell id="sauyvbuuM_kQLv8pul-b-13" value="&lt;font style=&quot;font-size: 48px&quot;&gt;02&lt;/font&gt;" style="rounded=0;whiteSpace=wrap;html=1;" parent="sauyvbuuM_kQLv8pul-b-1" vertex="1">
                    <mxGeometry x="595" y="100" width="120" height="60" as="geometry"/>
                </mxCell>
                <mxCell id="sauyvbuuM_kQLv8pul-b-14" value="&lt;font style=&quot;font-size: 48px&quot;&gt;XX&lt;/font&gt;" style="rounded=0;whiteSpace=wrap;html=1;" parent="sauyvbuuM_kQLv8pul-b-1" vertex="1">
                    <mxGeometry x="595" y="310" width="120" height="60" as="geometry"/>
                </mxCell>
                <mxCell id="sauyvbuuM_kQLv8pul-b-15" value="&lt;font style=&quot;font-size: 48px&quot;&gt;14&lt;/font&gt;" style="rounded=0;whiteSpace=wrap;html=1;" parent="sauyvbuuM_kQLv8pul-b-1" vertex="1">
                    <mxGeometry x="595" y="240" width="120" height="60" as="geometry"/>
                </mxCell>
                <mxCell id="sauyvbuuM_kQLv8pul-b-16" value="&lt;font style=&quot;font-size: 48px&quot;&gt;15&lt;/font&gt;" style="rounded=0;whiteSpace=wrap;html=1;" parent="sauyvbuuM_kQLv8pul-b-1" vertex="1">
                    <mxGeometry x="595" y="170" width="120" height="60" as="geometry"/>
                </mxCell>
                <mxCell id="sauyvbuuM_kQLv8pul-b-17" value="D" style="text;html=1;strokeColor=none;fillColor=none;align=center;verticalAlign=middle;whiteSpace=wrap;rounded=0;fontSize=48;" parent="sauyvbuuM_kQLv8pul-b-1" vertex="1">
                    <mxGeometry x="425" y="125" width="60" height="30" as="geometry"/>
                </mxCell>
                <mxCell id="sauyvbuuM_kQLv8pul-b-18" value="H" style="text;html=1;strokeColor=none;fillColor=none;align=center;verticalAlign=middle;whiteSpace=wrap;rounded=0;fontSize=48;" parent="sauyvbuuM_kQLv8pul-b-1" vertex="1">
                    <mxGeometry x="425" y="195" width="60" height="30" as="geometry"/>
                </mxCell>
                <mxCell id="sauyvbuuM_kQLv8pul-b-19" value="M" style="text;html=1;strokeColor=none;fillColor=none;align=center;verticalAlign=middle;whiteSpace=wrap;rounded=0;fontSize=48;" parent="sauyvbuuM_kQLv8pul-b-1" vertex="1">
                    <mxGeometry x="425" y="265" width="60" height="30" as="geometry"/>
                </mxCell>
                <mxCell id="sauyvbuuM_kQLv8pul-b-20" value="S" style="text;html=1;strokeColor=none;fillColor=none;align=center;verticalAlign=middle;whiteSpace=wrap;rounded=0;fontSize=48;" parent="sauyvbuuM_kQLv8pul-b-1" vertex="1">
                    <mxGeometry x="425" y="335" width="60" height="30" as="geometry"/>
                </mxCell>
                <mxCell id="sauyvbuuM_kQLv8pul-b-21" value="" style="ellipse;whiteSpace=wrap;html=1;aspect=fixed;" parent="sauyvbuuM_kQLv8pul-b-1" vertex="1">
                    <mxGeometry x="445" y="420" width="320" height="320" as="geometry"/>
                </mxCell>
                <mxCell id="sauyvbuuM_kQLv8pul-b-22" value="&lt;font style=&quot;font-size: 48px&quot;&gt;02&lt;/font&gt;" style="rounded=0;whiteSpace=wrap;html=1;" parent="sauyvbuuM_kQLv8pul-b-1" vertex="1">
                    <mxGeometry x="545" y="450" width="120" height="60" as="geometry"/>
                </mxCell>
                <mxCell id="sauyvbuuM_kQLv8pul-b-23" value="&lt;font style=&quot;font-size: 48px&quot;&gt;XX&lt;/font&gt;" style="rounded=0;whiteSpace=wrap;html=1;" parent="sauyvbuuM_kQLv8pul-b-1" vertex="1">
                    <mxGeometry x="545" y="660" width="120" height="60" as="geometry"/>
                </mxCell>
                <mxCell id="sauyvbuuM_kQLv8pul-b-24" value="&lt;font style=&quot;font-size: 48px&quot;&gt;14&lt;/font&gt;" style="rounded=0;whiteSpace=wrap;html=1;" parent="sauyvbuuM_kQLv8pul-b-1" vertex="1">
                    <mxGeometry x="545" y="590" width="120" height="60" as="geometry"/>
                </mxCell>
                <mxCell id="sauyvbuuM_kQLv8pul-b-25" value="&lt;font style=&quot;font-size: 48px&quot;&gt;15&lt;/font&gt;" style="rounded=0;whiteSpace=wrap;html=1;" parent="sauyvbuuM_kQLv8pul-b-1" vertex="1">
                    <mxGeometry x="545" y="520" width="120" height="60" as="geometry"/>
                </mxCell>
                <mxCell id="sauyvbuuM_kQLv8pul-b-26" value="D" style="text;html=1;strokeColor=none;fillColor=none;align=center;verticalAlign=middle;whiteSpace=wrap;rounded=0;fontSize=48;" parent="sauyvbuuM_kQLv8pul-b-1" vertex="1">
                    <mxGeometry x="455" y="460" width="60" height="30" as="geometry"/>
                </mxCell>
                <mxCell id="sauyvbuuM_kQLv8pul-b-27" value="H" style="text;html=1;strokeColor=none;fillColor=none;align=center;verticalAlign=middle;whiteSpace=wrap;rounded=0;fontSize=48;" parent="sauyvbuuM_kQLv8pul-b-1" vertex="1">
                    <mxGeometry x="455" y="530" width="60" height="30" as="geometry"/>
                </mxCell>
                <mxCell id="sauyvbuuM_kQLv8pul-b-28" value="M" style="text;html=1;strokeColor=none;fillColor=none;align=center;verticalAlign=middle;whiteSpace=wrap;rounded=0;fontSize=48;" parent="sauyvbuuM_kQLv8pul-b-1" vertex="1">
                    <mxGeometry x="455" y="600" width="60" height="30" as="geometry"/>
                </mxCell>
                <mxCell id="sauyvbuuM_kQLv8pul-b-29" value="S" style="text;html=1;strokeColor=none;fillColor=none;align=center;verticalAlign=middle;whiteSpace=wrap;rounded=0;fontSize=48;" parent="sauyvbuuM_kQLv8pul-b-1" vertex="1">
                    <mxGeometry x="455" y="675" width="60" height="30" as="geometry"/>
                </mxCell>
                <mxCell id="sauyvbuuM_kQLv8pul-b-30" value="alarm" style="ellipse;whiteSpace=wrap;html=1;aspect=fixed;fontSize=9;" parent="sauyvbuuM_kQLv8pul-b-1" vertex="1">
                    <mxGeometry x="555" y="200" width="20" height="20" as="geometry"/>
                </mxCell>
                <mxCell id="sauyvbuuM_kQLv8pul-b-31" value="sensors" style="ellipse;whiteSpace=wrap;html=1;aspect=fixed;fontSize=9;" parent="sauyvbuuM_kQLv8pul-b-1" vertex="1">
                    <mxGeometry x="555" y="230" width="20" height="20" as="geometry"/>
                </mxCell>
                <mxCell id="sauyvbuuM_kQLv8pul-b-32" value="cronometer" style="ellipse;whiteSpace=wrap;html=1;aspect=fixed;fontSize=9;" parent="sauyvbuuM_kQLv8pul-b-1" vertex="1">
                    <mxGeometry x="555" y="260" width="20" height="20" as="geometry"/>
                </mxCell>
                <mxCell id="sauyvbuuM_kQLv8pul-b-33" value="B1" style="rounded=0;whiteSpace=wrap;html=1;fontSize=9;rotation=-30;" parent="sauyvbuuM_kQLv8pul-b-1" vertex="1">
                    <mxGeometry x="765" y="140" width="60" height="30" as="geometry"/>
                </mxCell>
                <mxCell id="sauyvbuuM_kQLv8pul-b-34" value="&lt;div&gt;Rotor&lt;/div&gt;&lt;div&gt;w/ feedback&lt;br&gt;&lt;/div&gt;" style="ellipse;whiteSpace=wrap;html=1;fontSize=9;" parent="sauyvbuuM_kQLv8pul-b-1" vertex="1">
                    <mxGeometry x="775" y="225" width="75" height="20" as="geometry"/>
                </mxCell>
                <mxCell id="sauyvbuuM_kQLv8pul-b-35" value="&lt;div&gt;click/press&lt;/div&gt;" style="text;html=1;align=center;verticalAlign=middle;resizable=0;points=[];autosize=1;strokeColor=none;fillColor=none;fontSize=9;" parent="sauyvbuuM_kQLv8pul-b-1" vertex="1">
                    <mxGeometry x="805" y="130" width="60" height="20" as="geometry"/>
                </mxCell>
                <mxCell id="sauyvbuuM_kQLv8pul-b-36" value="" style="ellipse;whiteSpace=wrap;html=1;aspect=fixed;" parent="sauyvbuuM_kQLv8pul-b-1" vertex="1">
                    <mxGeometry x="905" y="80" width="320" height="320" as="geometry"/>
                </mxCell>
                <mxCell id="sauyvbuuM_kQLv8pul-b-37" value="&lt;font style=&quot;font-size: 48px&quot;&gt;02&lt;/font&gt;" style="rounded=0;whiteSpace=wrap;html=1;" parent="sauyvbuuM_kQLv8pul-b-1" vertex="1">
                    <mxGeometry x="1005" y="105" width="120" height="60" as="geometry"/>
                </mxCell>
                <mxCell id="sauyvbuuM_kQLv8pul-b-38" value="&lt;font style=&quot;font-size: 48px&quot;&gt;XX&lt;/font&gt;" style="rounded=0;whiteSpace=wrap;html=1;" parent="sauyvbuuM_kQLv8pul-b-1" vertex="1">
                    <mxGeometry x="1005" y="315" width="120" height="60" as="geometry"/>
                </mxCell>
                <mxCell id="sauyvbuuM_kQLv8pul-b-39" value="&lt;font style=&quot;font-size: 48px&quot;&gt;14&lt;/font&gt;" style="rounded=0;whiteSpace=wrap;html=1;" parent="sauyvbuuM_kQLv8pul-b-1" vertex="1">
                    <mxGeometry x="1005" y="245" width="120" height="60" as="geometry"/>
                </mxCell>
                <mxCell id="sauyvbuuM_kQLv8pul-b-40" value="&lt;font style=&quot;font-size: 48px&quot;&gt;15&lt;/font&gt;" style="rounded=0;whiteSpace=wrap;html=1;" parent="sauyvbuuM_kQLv8pul-b-1" vertex="1">
                    <mxGeometry x="1005" y="175" width="120" height="60" as="geometry"/>
                </mxCell>
                <mxCell id="sauyvbuuM_kQLv8pul-b-41" value="alarm" style="ellipse;whiteSpace=wrap;html=1;aspect=fixed;fontSize=9;fillColor=#fff2cc;strokeColor=#d6b656;" parent="sauyvbuuM_kQLv8pul-b-1" vertex="1">
                    <mxGeometry x="965" y="200" width="20" height="20" as="geometry"/>
                </mxCell>
                <mxCell id="sauyvbuuM_kQLv8pul-b-42" value="sensors" style="ellipse;whiteSpace=wrap;html=1;aspect=fixed;fontSize=9;" parent="sauyvbuuM_kQLv8pul-b-1" vertex="1">
                    <mxGeometry x="965" y="230" width="20" height="20" as="geometry"/>
                </mxCell>
                <mxCell id="sauyvbuuM_kQLv8pul-b-43" value="cronometer" style="ellipse;whiteSpace=wrap;html=1;aspect=fixed;fontSize=9;" parent="sauyvbuuM_kQLv8pul-b-1" vertex="1">
                    <mxGeometry x="965" y="260" width="20" height="20" as="geometry"/>
                </mxCell>
                <mxCell id="sauyvbuuM_kQLv8pul-b-44" value="B1" style="rounded=0;whiteSpace=wrap;html=1;fontSize=9;rotation=-30;" parent="sauyvbuuM_kQLv8pul-b-1" vertex="1">
                    <mxGeometry x="1175" y="145" width="60" height="30" as="geometry"/>
                </mxCell>
                <mxCell id="sauyvbuuM_kQLv8pul-b-45" value="&lt;div&gt;Rotor&lt;/div&gt;&lt;div&gt;w/ feedback&lt;br&gt;&lt;/div&gt;" style="ellipse;whiteSpace=wrap;html=1;fontSize=9;" parent="sauyvbuuM_kQLv8pul-b-1" vertex="1">
                    <mxGeometry x="1185" y="230" width="75" height="20" as="geometry"/>
                </mxCell>
                <mxCell id="sauyvbuuM_kQLv8pul-b-46" value="&lt;div&gt;click/press&lt;/div&gt;" style="text;html=1;align=center;verticalAlign=middle;resizable=0;points=[];autosize=1;strokeColor=none;fillColor=none;fontSize=9;" parent="sauyvbuuM_kQLv8pul-b-1" vertex="1">
                    <mxGeometry x="1215" y="135" width="60" height="20" as="geometry"/>
                </mxCell>
                <mxCell id="sauyvbuuM_kQLv8pul-b-47" value="&lt;font style=&quot;font-size: 18px&quot;&gt;Alarm UI&lt;/font&gt;" style="text;html=1;strokeColor=none;fillColor=none;align=center;verticalAlign=middle;whiteSpace=wrap;rounded=0;fontSize=9;" parent="sauyvbuuM_kQLv8pul-b-1" vertex="1">
                    <mxGeometry x="985" width="150" height="50" as="geometry"/>
                </mxCell>
                <mxCell id="sauyvbuuM_kQLv8pul-b-48" value="alarm nº" style="text;html=1;strokeColor=none;fillColor=none;align=center;verticalAlign=middle;whiteSpace=wrap;rounded=0;fontSize=18;" parent="sauyvbuuM_kQLv8pul-b-1" vertex="1">
                    <mxGeometry x="1125" y="115" width="60" height="30" as="geometry"/>
                </mxCell>
                <mxCell id="sauyvbuuM_kQLv8pul-b-49" value="H" style="text;html=1;strokeColor=none;fillColor=none;align=center;verticalAlign=middle;whiteSpace=wrap;rounded=0;fontSize=18;" parent="sauyvbuuM_kQLv8pul-b-1" vertex="1">
                    <mxGeometry x="1125" y="190" width="60" height="30" as="geometry"/>
                </mxCell>
                <mxCell id="sauyvbuuM_kQLv8pul-b-50" value="M" style="text;html=1;strokeColor=none;fillColor=none;align=center;verticalAlign=middle;whiteSpace=wrap;rounded=0;fontSize=18;" parent="sauyvbuuM_kQLv8pul-b-1" vertex="1">
                    <mxGeometry x="1125" y="255" width="60" height="30" as="geometry"/>
                </mxCell>
                <mxCell id="sauyvbuuM_kQLv8pul-b-51" value="ON/OFF" style="text;html=1;strokeColor=none;fillColor=none;align=center;verticalAlign=middle;whiteSpace=wrap;rounded=0;fontSize=18;" parent="sauyvbuuM_kQLv8pul-b-1" vertex="1">
                    <mxGeometry x="1125" y="330" width="60" height="30" as="geometry"/>
                </mxCell>
                <mxCell id="sauyvbuuM_kQLv8pul-b-52" value="&lt;div&gt;alarm&lt;/div&gt;on/off" style="ellipse;whiteSpace=wrap;html=1;aspect=fixed;fontSize=9;" parent="sauyvbuuM_kQLv8pul-b-1" vertex="1">
                    <mxGeometry x="555" y="170" width="20" height="20" as="geometry"/>
                </mxCell>
                <mxCell id="sauyvbuuM_kQLv8pul-b-53" value="&lt;div&gt;alarm&lt;/div&gt;on/off" style="ellipse;whiteSpace=wrap;html=1;aspect=fixed;fontSize=9;" parent="sauyvbuuM_kQLv8pul-b-1" vertex="1">
                    <mxGeometry x="965" y="170" width="20" height="20" as="geometry"/>
                </mxCell>
            </root>
        </mxGraphModel>
    </diagram>
</mxfile>